<?xml version="1.0" encoding="UTF-8" standalone="no"?>
<!-- Created with Inkscape (http://www.inkscape.org/) -->

<svg
   width="512"
   height="512"
   viewBox="0 0 512 512"
   version="1.1"
   id="svg1"
   xml:space="preserve"
   xmlns="http://www.w3.org/2000/svg"
   xmlns:svg="http://www.w3.org/2000/svg"><defs
     id="defs1" /><path
     id="path103"
     style="fill:#ffffff;fill-opacity:1;stroke:none;stroke-width:16;paint-order:stroke fill markers"
     d="m 315.07461,182.90584 c 5.67802,6.99273 12.42218,18.38107 0.85526,22.23671 -4.97063,1.65687 -12.42847,-4.28539 -16.89135,-5.773 -1.18922,-0.39615 -3.61842,9.52758 -5.77299,9.83547 -6.97042,0.9958 -12.29669,-3.70771 -17.96042,-7.48351 -2.46656,-1.64435 -3.87685,4.06638 -4.91773,6.84207 -1.27064,3.38853 -4.78116,2.77959 -7.69732,2.77959 -7.26702,0 -11.07409,-2.72773 -17.31897,-5.98681 -3.69403,-1.92782 -10.6663,2.07465 -15.60846,0.85492 -1.57142,-0.38795 -7.99461,-5.55918 -8.33877,-5.55918 -3.15474,0 -8.16668,5.84511 -15.18082,0 -3.38683,-2.82242 -1.49883,-7.27181 -3.42104,-9.19402 -1.76491,-1.76491 -9.18649,2.42825 -12.18742,0.42763 -4.64795,-3.09864 2.55482,-8.77735 -0.85526,-12.18743 -3.07284,-3.07284 -21.6212,6.29271 -11.11835,-8.55258 19.20074,-27.13932 10.75572,-55.61489 30.98072,-86.707556 29.03478,-44.636117 123.6937,-42.690919 148.19459,-0.726627 6.03025,10.328437 8.93901,22.408173 4.64972,19.196913 -9.70163,-7.263328 -24.70744,-22.844759 -47.52511,4.19569 28.34223,-10.604033 41.24752,7.72702 40.39438,10.86328 -2.84315,10.45201 -36.61058,-0.35099 -44.61388,12.98905 -6.93149,11.55323 -16.12982,26.74836 4.33322,51.94939 z" /><rect
     style="fill:#022d62;fill-opacity:1;stroke:none;stroke-width:16;paint-order:stroke fill markers"
     id="rect1"
     width="512"
     height="512"
     x="0"
     y="-3.5981355e-08" /><text
     xml:space="preserve"
     style="font-style:normal;font-variant:normal;font-weight:bold;font-stretch:normal;font-size:180px;line-height:1;font-family:'Cascadia Mono';-inkscape-font-specification:'Cascadia Mono Bold';font-variant-ligatures:none;font-variant-caps:normal;font-variant-numeric:normal;font-variant-east-asian:normal;text-align:start;letter-spacing:-0.32px;writing-mode:lr-tb;direction:ltr;text-anchor:start;fill:#022d62;fill-opacity:1;stroke:none;stroke-width:16;paint-order:stroke fill markers"
     x="44.971207"
     y="360.20312"
     id="text1"><tspan
       id="tspan1"
       x="44.971207"
       y="360.20312"
       style="font-style:normal;font-variant:normal;font-weight:bold;font-stretch:normal;font-size:180px;font-family:'Cascadia Mono';-inkscape-font-specification:'Cascadia Mono Bold';font-variant-ligatures:none;font-variant-caps:normal;font-variant-numeric:normal;font-variant-east-asian:normal;fill:#ffffff">&gt;CS_</tspan></text><path
     id="path83"
     style="fill:#ffffff;fill-opacity:1;stroke:none;stroke-width:16;paint-order:stroke fill markers"
     d="M 285.43945 51.599609 C 255.08276 51.447288 224.15997 62.119442 209.64258 84.4375 C 189.41758 115.53017 197.8609 144.00716 178.66016 171.14648 C 168.15731 185.99177 186.70646 176.62638 189.7793 179.69922 C 193.18938 183.1093 185.98682 188.78613 190.63477 191.88477 C 193.6357 193.88539 201.05736 189.69407 202.82227 191.45898 C 204.74448 193.38119 202.85536 197.82992 206.24219 200.65234 C 213.25633 206.49745 218.26909 200.65234 221.42383 200.65234 C 221.76799 200.65234 228.1903 205.82299 229.76172 206.21094 C 234.70388 207.43067 241.67706 203.42765 245.37109 205.35547 C 251.61597 208.61455 255.42243 211.34375 262.68945 211.34375 C 265.60561 211.34375 269.11608 211.95298 270.38672 208.56445 C 271.4276 205.78876 272.83813 200.07635 275.30469 201.7207 C 280.96842 205.4965 286.29521 210.20088 293.26562 209.20508 C 295.4202 208.89719 297.84984 198.97299 299.03906 199.36914 C 303.50194 200.85675 310.95906 206.79945 315.92969 205.14258 C 327.49661 201.28694 320.75224 189.89898 315.07422 182.90625 C 294.61118 157.70522 303.8107 142.51026 310.74219 130.95703 C 318.74549 117.61699 352.51232 128.41881 355.35547 117.9668 C 356.20861 114.83054 343.30317 96.499483 314.96094 107.10352 C 337.77861 80.063067 352.7847 95.644875 362.48633 102.9082 C 366.77562 106.11946 363.86619 94.039374 357.83594 83.710938 C 345.58549 62.728791 315.79614 51.751931 285.43945 51.599609 z M 316.48242 56.658203 C 317.03526 63.426167 309.33198 75.335126 313.00391 81.455078 C 315.75538 86.040834 324.79203 78.760576 323.58789 84.78125 C 322.18719 91.784992 290.75981 84.459369 286.69727 80.396484 C 284.40511 78.104324 304.81435 66.361438 307.25977 63.916016 C 310.49559 60.680199 312.13655 57.961958 316.48242 56.658203 z M 249.94141 64.011719 C 253.38278 64.013031 256.80908 64.311794 260.08789 65.427734 C 267.43558 67.928508 254.25513 69.662109 251.92383 69.662109 C 241.74216 69.662109 241.94099 76.748586 234.23438 81.152344 C 232.41677 82.190969 229.26752 80.894555 228.33789 79.035156 C 225.75898 73.877403 239.89175 64.408959 243.75977 64.21875 C 245.80641 64.117966 247.87658 64.010931 249.94141 64.011719 z M 332.1875 67.361328 C 333.80295 67.25634 342.37447 74.228234 341.88086 75.708984 C 340.78073 79.00939 335.85948 80.440923 333.41406 81.908203 C 331.25806 83.201764 327.88703 83.850758 325.55273 84.628906 C 326.44158 81.092038 328.06693 69.388377 332.05469 67.394531 C 332.09178 67.375994 332.13539 67.364715 332.1875 67.361328 z M 261.38477 73.703125 C 263.29818 73.666564 265.29431 74.837543 266.39453 77.771484 C 266.12222 80.913223 267.43962 82.883468 270.27148 83.972656 C 273.38031 85.168375 282.07426 82.863055 283.76172 84.128906 C 290.49753 89.180743 265.86164 90.120073 260.3457 85.523438 C 253.36128 79.703091 257.17526 73.783559 261.38477 73.703125 z M 348.41602 78.164062 C 348.77678 78.169501 349.26043 78.673192 349.89453 79.941406 L 349.28906 78.732422 C 360.60432 88.696588 352.88909 98.156802 347.92969 84.931641 C 347.37818 83.460945 347.23751 78.146298 348.41602 78.164062 z M 289.26758 84.230469 C 289.62015 84.245646 289.99853 84.469854 290.42773 84.980469 C 294.43095 89.742956 285.5175 96.139634 279.88477 96.84375 C 266.01584 98.577324 254.45077 89.737697 240.6543 92.037109 C 237.32153 92.592685 231.84278 93.130364 228.79492 94.654297 C 224.45855 96.822479 227.82001 100.05856 221.58203 100.71875 C 221.1934 100.69825 219.54473 100.85387 219.25586 100.56445 C 216.55365 97.862254 219.30382 89.952574 222.82227 88.779297 C 237.50883 83.883732 254.67423 88.020102 268.875 91.570312 C 274.6443 93.012619 279.91531 92.567828 284.30859 89.638672 C 286.7135 88.035349 287.73975 84.1647 289.26758 84.230469 z M 306.94922 90.363281 C 311.60022 90.552721 298.5251 98.35978 297.86133 98.691406 C 296.09868 99.572801 286.42382 101.96617 286.20898 103.6875 C 285.42556 109.95462 314.14293 106.71212 311.97461 112.13281 C 310.16352 116.66068 282.85179 109.41625 281.07812 107.64258 C 280.24984 106.81407 281.0885 105.58265 281.39844 104.75586 C 284.88249 95.465155 298.00948 94.71012 305.77344 90.431641 C 306.24999 90.372076 306.63915 90.350652 306.94922 90.363281 z M 235.06641 101.80664 C 235.55356 101.80416 236.02405 101.89972 236.4707 102.12305 C 236.96059 102.36786 236.5562 103.95641 236.4707 104.42578 C 234.62184 114.59466 212.43229 113.68532 220.46289 103 C 221.92182 103.91184 221.59277 105.47073 222.98438 106.39844 C 225.9898 108.40205 231.09955 101.8268 235.06641 101.80664 z M 250.72656 112.01172 C 251.84993 111.99373 252.88608 112.58464 253.57617 113.96484 C 255.20746 117.22741 251.28311 117.53447 250.28711 119.77539 C 249.03686 122.5885 250.34139 126.62405 245.68164 125.58789 C 244.95583 123.87676 244.60431 121.8626 244.69531 119.99609 C 244.9142 115.51389 248.06596 112.05432 250.72656 112.01172 z M 232.54492 112.47656 C 232.84289 112.46729 233.16262 112.51825 233.50977 112.64844 C 238.65241 114.57687 229.0265 121.50662 232.63281 122.4082 C 239.27953 133.8978 216.76993 127.30625 229.45312 114.62305 C 230.37266 113.70351 231.25374 112.51676 232.54492 112.47656 z M 320.26172 115.72656 C 322.38644 115.68295 324.50703 115.98047 326.62109 115.98047 C 354.54547 115.98047 304.1357 130.9831 319.35156 115.76758 C 319.65528 115.74551 319.95819 115.73279 320.26172 115.72656 z M 213.73047 120.87109 C 213.77501 120.8668 213.82091 120.86767 213.86523 120.875 C 217.57055 121.48805 216.02149 136.20063 210.95898 141.03516 C 207.74038 144.10881 210.92447 121.1418 213.73047 120.87109 z M 252.71094 140.43555 C 252.88936 140.43293 253.03922 140.4493 253.13672 140.49805 C 254.38177 141.12054 244.42488 171.49887 241.95312 149.59961 C 244.44712 146.10797 244.61792 152.90246 246.77734 151.46289 C 249.57 149.6011 247.76838 141.53839 251.05469 140.7168 C 251.39224 140.63264 252.17568 140.44341 252.71094 140.43555 z M 222.76367 142.70703 C 222.784 142.71162 222.80363 142.72159 222.82227 142.74023 C 225.94971 145.86767 225.94382 149.67463 231.66016 151.58008 C 233.72435 152.26812 237.91291 152.43766 240.00391 152.26367 C 242.93936 152.0194 235.43303 175.15876 234.89258 175.69922 C 231.81317 178.77856 227.42576 173.55076 225.45703 171.58203 C 224.27102 170.39602 223.07278 165.7693 222.66602 167.39648 C 222.20555 169.23952 218.03149 173.01228 219.09961 175.14844 C 219.73387 176.41758 224.17344 179.89551 223.44141 181.50586 C 222.21326 184.20779 220.27492 186.60053 218.94531 189.25977 C 218.84473 189.46092 218.05958 192.80463 217.39453 192.36133 C 205.60812 184.5037 216.80327 184.72124 215.68945 180.26562 C 214.1558 174.13117 207.89074 176.60461 212.58789 170.3418 C 213.15167 169.5904 220.09495 156.38672 218.32422 156.38672 C 217.69612 156.38672 214.24474 158.58274 213.36328 159.02344 C 212.01444 159.69807 209.90009 157.52361 208.71094 158.71289 C 206.14886 161.27497 209.83488 168.81769 205.91992 171.42773 C 203.73196 172.88632 203.42098 168.67178 204.05859 167.39648 C 205.43159 164.65056 204.73749 160.90805 204.52539 157.9375 C 204.35844 155.60333 205.44719 153.20404 206.23047 151.11523 C 211.06931 155.00836 216.80022 153.87381 220.49609 149.25391 C 220.72345 148.96955 222.13348 142.56477 222.76367 142.70703 z M 287.61523 161.63281 C 288.2843 161.64529 289.18036 161.88398 290.34766 162.41406 C 290.92034 165.08787 293.7359 166.74487 295.96484 168.71484 C 300.36299 172.60188 295.86394 175.90854 290.8418 172.13672 C 287.92519 169.9461 283.52647 161.55654 287.61523 161.63281 z M 301.93164 162.4668 C 302.21314 162.4759 302.53047 162.58398 302.88672 162.80664 C 300.29064 167.63754 314.40188 180.42073 310.15625 181.83594 C 301.7645 184.63321 297.70922 162.33027 301.93164 162.4668 z M 201.53711 162.7793 C 201.82821 162.78447 202.07806 162.93738 202.26172 163.30469 C 202.81798 164.41721 200.25567 177.35405 198.0957 175.91406 C 194.14023 173.27713 200.11422 169.25642 194.47656 168.12891 C 191.57844 167.54905 191.73749 174.57282 188.5625 170.87695 C 188.72951 170.81358 192.59834 161.53584 194.25781 163.19531 C 195.10917 164.04667 195.36272 166.48133 197.65625 165.7168 C 198.25548 165.51722 200.27568 162.75688 201.53711 162.7793 z M 248.80273 163.38281 C 249.23059 163.34653 249.70194 163.97938 250.17578 165.7168 C 250.57057 167.16404 251.2072 180.98813 248.86133 179.3125 C 248.31876 179.0053 247.56158 175.97247 247.43555 173.83008 C 247.34245 172.25442 247.17389 170.69075 247.10547 169.11523 C 247.02705 167.30752 247.7894 163.46874 248.80273 163.38281 z M 261.58789 164.50391 C 262.01705 164.51475 262.40596 165.10512 262.74219 166.46484 C 265.00356 175.60994 258.7221 190.56177 252.38867 194.2207 C 248.41056 196.51895 244.78362 188.17383 246.4082 188.17383 C 248.56078 188.21493 251.52372 188.20856 253.08008 185.69336 C 255.78005 181.32581 259.27043 164.44533 261.58789 164.50391 z " /></svg>
