<?xml version="1.0" encoding="UTF-8" standalone="no"?>
<!-- Created with Inkscape (http://www.inkscape.org/) -->

<svg
   width="512"
   height="512"
   viewBox="0 0 512 512"
   version="1.1"
   id="svg1"
   xml:space="preserve"
   xmlns="http://www.w3.org/2000/svg"
   xmlns:svg="http://www.w3.org/2000/svg"><defs
     id="defs1" /><text
     xml:space="preserve"
     style="font-style:normal;font-variant:normal;font-weight:bold;font-stretch:normal;font-size:180px;line-height:1;font-family:'Cascadia Mono';-inkscape-font-specification:'Cascadia Mono Bold';font-variant-ligatures:none;font-variant-caps:normal;font-variant-numeric:normal;font-variant-east-asian:normal;text-align:start;letter-spacing:-0.32px;writing-mode:lr-tb;direction:ltr;text-anchor:start;fill:#022d62;fill-opacity:1;stroke:none;stroke-width:16;paint-order:stroke fill markers"
     x="44.971207"
     y="360.20312"
     id="text1"><tspan
       id="tspan1"
       x="44.971207"
       y="360.20312"
       style="font-style:normal;font-variant:normal;font-weight:bold;font-stretch:normal;font-size:180px;font-family:'Cascadia Mono';-inkscape-font-specification:'Cascadia Mono Bold';font-variant-ligatures:none;font-variant-caps:normal;font-variant-numeric:normal;font-variant-east-asian:normal;fill:#ffffff">&gt;CS_</tspan></text><path
     id="path83"
     style="fill:#ffffff;fill-opacity:1;stroke:none;stroke-width:16;paint-order:stroke fill markers"
     d="m 285.43945,51.599609 c -30.35669,-0.152321 -61.27948,10.519833 -75.79687,32.837891 -20.225,31.09267 -11.78168,59.56966 -30.98242,86.70898 -10.50285,14.84529 8.0463,5.4799 11.11914,8.55274 3.41008,3.41008 -3.79248,9.08691 0.85547,12.18555 3.00093,2.00062 10.42259,-2.1907 12.1875,-0.42579 1.92221,1.92221 0.0331,6.37094 3.41992,9.19336 7.01414,5.84511 12.0269,0 15.18164,0 0.34416,0 6.76647,5.17065 8.33789,5.5586 4.94216,1.21973 11.91534,-2.78329 15.60937,-0.85547 6.24488,3.25908 10.05134,5.98828 17.31836,5.98828 2.91616,0 6.42663,0.60923 7.69727,-2.7793 1.04088,-2.77569 2.45141,-8.4881 4.91797,-6.84375 5.66373,3.7758 10.99052,8.48018 17.96093,7.48438 2.15458,-0.30789 4.58422,-10.23209 5.77344,-9.83594 4.46288,1.48761 11.92,7.43031 16.89063,5.77344 11.56692,-3.85564 4.82255,-15.2436 -0.85547,-22.23633 -20.46304,-25.20103 -11.26352,-40.39599 -4.33203,-51.94922 8.0033,-13.34004 41.77013,-2.53822 44.61328,-12.99023 0.85314,-3.13626 -12.0523,-21.467317 -40.39453,-10.86328 22.81767,-27.040453 37.82376,-11.458645 47.52539,-4.19532 4.28929,3.21126 1.37986,-8.868826 -4.65039,-19.197262 -12.25045,-20.982147 -42.0398,-31.959007 -72.39649,-32.111329 z m 31.04297,5.058594 c 0.55284,6.767964 -7.15044,18.676923 -3.47851,24.796875 2.75147,4.585756 11.78812,-2.694502 10.58398,3.326172 -1.4007,7.003742 -32.82808,-0.321881 -36.89062,-4.384766 -2.29216,-2.29216 18.11708,-14.035046 20.5625,-16.480468 3.23582,-3.235817 4.87678,-5.954058 9.22265,-7.257813 z m -66.54101,7.353516 c 3.44137,0.0013 6.86767,0.300075 10.14648,1.416015 7.34769,2.500774 -5.83276,4.234375 -8.16406,4.234375 -10.18167,0 -9.98284,7.086477 -17.68945,11.490235 -1.81761,1.038625 -4.96686,-0.257789 -5.89649,-2.117188 -2.57891,-5.157753 11.55386,-14.626197 15.42188,-14.816406 2.04664,-0.100784 4.11681,-0.207819 6.18164,-0.207031 z m 82.24609,3.349609 c 1.61545,-0.104988 10.18697,6.866906 9.69336,8.347656 -1.10013,3.300406 -6.02138,4.731939 -8.4668,6.199219 -2.156,1.293561 -5.52703,1.942555 -7.86133,2.720703 0.88885,-3.536868 2.5142,-15.240529 6.50196,-17.234375 0.0371,-0.01854 0.0807,-0.02982 0.13281,-0.0332 z m -70.80273,6.341797 c 1.91341,-0.03656 3.90954,1.134418 5.00976,4.068359 -0.27231,3.141739 1.04509,5.111984 3.87695,6.201172 3.10883,1.195719 11.80278,-1.109601 13.49024,0.15625 6.73581,5.051837 -17.90008,5.991167 -23.41602,1.394532 -6.98442,-5.820347 -3.17044,-11.739879 1.03907,-11.820313 z m 87.03125,4.460937 c 0.36076,0.0054 0.84441,0.50913 1.47851,1.777344 l -0.60547,-1.208984 c 11.31526,9.964166 3.60003,19.42438 -1.35937,6.199219 -0.55151,-1.470696 -0.69218,-6.785343 0.48633,-6.767579 z m -59.14844,6.066407 c 0.35257,0.01518 0.73095,0.239385 1.16015,0.75 4.00322,4.762487 -4.91023,11.159165 -10.54296,11.863281 -13.86893,1.733574 -25.434,-7.106053 -39.23047,-4.806641 -3.33277,0.555576 -8.81152,1.093255 -11.85938,2.617188 -4.33637,2.168182 -0.97491,5.404263 -7.21289,6.064453 -0.38863,-0.0205 -2.0373,0.13512 -2.32617,-0.1543 -2.70221,-2.702196 0.048,-10.611876 3.56641,-11.785153 14.68656,-4.895565 31.85196,-0.759195 46.05273,2.791015 5.7693,1.442307 11.04031,0.997516 15.43359,-1.93164 2.40491,-1.603323 3.43116,-5.473972 4.95899,-5.408203 z m 17.68164,6.132812 c 4.651,0.18944 -8.42412,7.996499 -9.08789,8.328125 -1.76265,0.881395 -11.43751,3.274764 -11.65235,4.996094 -0.78342,6.26712 27.93395,3.02462 25.76563,8.44531 -1.81109,4.52787 -29.12282,-2.71656 -30.89649,-4.49023 -0.82828,-0.82851 0.0104,-2.05993 0.32032,-2.88672 3.48405,-9.290705 16.61104,-10.04574 24.375,-14.324219 0.47655,-0.05956 0.86571,-0.08099 1.17578,-0.06836 z m -71.88281,11.443359 c 0.48715,-0.002 0.95764,0.0931 1.40429,0.31641 0.48989,0.24481 0.0855,1.83336 0,2.30273 -1.84886,10.16888 -24.03841,9.25954 -16.00781,-1.42578 1.45893,0.91184 1.12988,2.47073 2.52149,3.39844 3.00542,2.00361 8.11517,-4.57164 12.08203,-4.5918 z m 15.66015,10.20508 c 1.12337,-0.018 2.15952,0.57292 2.84961,1.95312 1.63129,3.26257 -2.29306,3.56963 -3.28906,5.81055 -1.25025,2.81311 0.0543,6.84866 -4.60547,5.8125 -0.72581,-1.71113 -1.07733,-3.72529 -0.98633,-5.5918 0.21889,-4.4822 3.37065,-7.94177 6.03125,-7.98437 z m -18.18164,0.46484 c 0.29797,-0.009 0.6177,0.0417 0.96485,0.17188 5.14264,1.92843 -4.48327,8.85818 -0.87696,9.75976 6.64672,11.4896 -15.86288,4.89805 -3.17969,-7.78515 0.91954,-0.91954 1.80062,-2.10629 3.0918,-2.14649 z m 87.7168,3.25 c 2.12472,-0.0436 4.24531,0.25391 6.35937,0.25391 27.92438,0 -22.48539,15.00263 -7.26953,-0.21289 0.30372,-0.0221 0.60663,-0.0348 0.91016,-0.041 z m -106.53125,5.14453 c 0.0445,-0.004 0.0904,-0.003 0.13476,0.004 3.70532,0.61305 2.15626,15.32563 -2.90625,20.16016 -3.2186,3.07365 -0.0345,-19.89336 2.77149,-20.16407 z m 38.98047,19.56446 c 0.17842,-0.003 0.32828,0.0137 0.42578,0.0625 1.24505,0.62249 -8.71184,31.00082 -11.1836,9.10156 2.494,-3.49164 2.6648,3.30285 4.82422,1.86328 2.79266,-1.86179 0.99104,-9.9245 4.27735,-10.74609 0.33755,-0.0842 1.12099,-0.27339 1.65625,-0.28125 z m -29.94727,2.27148 c 0.0203,0.005 0.04,0.0146 0.0586,0.0332 3.12744,3.12744 3.12155,6.9344 8.83789,8.83985 2.06419,0.68804 6.25275,0.85758 8.34375,0.68359 2.93545,-0.24427 -4.57088,22.89509 -5.11133,23.43555 -3.07941,3.07934 -7.46682,-2.14846 -9.43555,-4.11719 -1.18601,-1.18601 -2.38425,-5.81273 -2.79101,-4.18555 -0.46047,1.84304 -4.63453,5.6158 -3.56641,7.75196 0.63426,1.26914 5.07383,4.74707 4.3418,6.35742 -1.22815,2.70193 -3.16649,5.09467 -4.4961,7.75391 -0.10058,0.20115 -0.88573,3.54486 -1.55078,3.10156 -11.78641,-7.85763 -0.59126,-7.64009 -1.70508,-12.09571 -1.53365,-6.13445 -7.79871,-3.66101 -3.10156,-9.92382 0.56378,-0.7514 7.50706,-13.95508 5.73633,-13.95508 -0.6281,0 -4.07948,2.19602 -4.96094,2.63672 -1.34884,0.67463 -3.46319,-1.49983 -4.65234,-0.31055 -2.56208,2.56208 1.12394,10.1048 -2.79102,12.71484 -2.18796,1.45859 -2.49894,-2.75595 -1.86133,-4.03125 1.373,-2.74592 0.6789,-6.48843 0.4668,-9.45898 -0.16695,-2.33417 0.9218,-4.73346 1.70508,-6.82227 4.83884,3.89313 10.56975,2.75858 14.26562,-1.86132 0.22736,-0.28436 1.63739,-6.68914 2.26758,-6.54688 z m 64.85156,18.92578 c 0.66907,0.0125 1.56513,0.25117 2.73243,0.78125 0.57268,2.67381 3.38824,4.33081 5.61718,6.30078 4.39815,3.88704 -0.1009,7.1937 -5.12304,3.42188 -2.91661,-2.19062 -7.31533,-10.58018 -3.22657,-10.50391 z m 14.31641,0.83399 c 0.2815,0.009 0.59883,0.11718 0.95508,0.33984 -2.59608,4.8309 11.51516,17.61409 7.26953,19.0293 -8.39175,2.79727 -12.44703,-19.50567 -8.22461,-19.36914 z m -100.39453,0.3125 c 0.2911,0.005 0.54095,0.15808 0.72461,0.52539 0.55626,1.11252 -2.00605,14.04936 -4.16602,12.60937 -3.95547,-2.63693 2.01852,-6.65764 -3.61914,-7.78515 -2.89812,-0.57986 -2.73907,6.44391 -5.91406,2.74804 0.16701,-0.0634 4.03584,-9.34111 5.69531,-7.68164 0.85136,0.85136 1.10491,3.28602 3.39844,2.52149 0.59923,-0.19958 2.61943,-2.95992 3.88086,-2.9375 z m 47.26562,0.60351 c 0.42786,-0.0363 0.89921,0.59657 1.37305,2.33399 0.39479,1.44724 1.03142,15.27133 -1.31445,13.5957 -0.54257,-0.3072 -1.29975,-3.34003 -1.42578,-5.48242 -0.0931,-1.57566 -0.26166,-3.13933 -0.33008,-4.71485 -0.0784,-1.80771 0.68393,-5.64649 1.69726,-5.73242 z m 12.78516,1.1211 c 0.42916,0.0108 0.81807,0.60121 1.1543,1.96093 2.26137,9.1451 -4.02009,24.09693 -10.35352,27.75586 -3.97811,2.29825 -7.60505,-6.04687 -5.98047,-6.04687 2.15258,0.0411 5.11552,0.0347 6.67188,-2.48047 2.69997,-4.36755 6.19035,-21.24803 8.50781,-21.18945 z" /></svg>
